<svg width="168" height="169" viewBox="0 0 168 169" fill="none" xmlns="http://www.w3.org/2000/svg">
<path d="M32.8234 168.344C32.3745 165.606 31.4468 163.437 31.7834 161.484C34.0504 148.443 36.5717 135.44 39.0406 122.437C39.699 118.973 40.3948 115.509 41.2627 112.097C41.8762 109.681 41.3899 107.781 39.3548 106.381C35.5916 103.793 31.6562 101.429 28.0202 98.6679C19.738 92.3833 11.5905 85.9192 3.40555 79.5074C2.87436 79.0885 2.45538 78.5124 2.05138 77.9587C-1.3004 73.3201 -0.656977 71.4871 4.8121 70.4247C15.451 68.3523 26.0974 66.2874 36.7662 64.3795C39.3324 63.9232 42.0108 64.1177 44.6294 63.968C48.1159 63.766 50.51 62.6363 52.3205 59.0002C59.4805 44.613 63.9021 29.3654 67.7028 13.8635C68.6754 9.89821 70.1044 6.02272 71.6007 2.21457C71.9748 1.2644 73.3963 0.725719 74.339 0C74.9376 0.845426 75.6109 1.65344 76.1122 2.55872C77.3167 4.74336 78.439 6.97289 79.5986 9.18746C82.9429 15.5469 86.4742 21.8165 89.5791 28.2881C91.7338 32.7771 93.2451 37.5803 95.1904 42.174C96.971 46.3712 98.4972 50.7929 101.019 54.5187C102.343 56.4714 105.448 57.9304 107.932 58.267C124.705 60.5265 141.494 62.9954 158.522 61.4243C160.423 61.2522 162.435 61.4393 164.291 61.8807C168.57 62.9057 169.154 65.1277 166.004 68.3972C161.313 73.2603 156.712 78.243 151.692 82.7545C144.891 88.8595 137.716 94.553 130.721 100.449C129.501 101.474 128.364 102.611 127.227 103.726C124.878 106.022 124.346 108.259 125.775 111.656C127.459 115.659 127.631 120.275 128.925 124.48C131.626 133.271 134.611 141.979 137.536 150.703C138.187 152.648 139.302 154.451 139.781 156.426C140.118 157.825 140.192 160.451 139.609 160.698C138.015 161.387 135.703 161.761 134.2 161.087C128.087 158.342 122.207 155.094 116.176 152.162C109.039 148.683 101.834 145.346 94.6741 141.912C90.9782 140.139 87.2598 138.388 83.6387 136.48C80.676 134.916 78.5213 135.178 75.6708 137.468C67.0369 144.396 58.029 150.875 49.0585 157.376C44.173 160.923 39.0556 164.155 32.8159 168.359L32.8234 168.344ZM13.8948 76.5148C14.3063 77.2031 14.3811 77.4575 14.5457 77.5772C26.5388 86.3232 38.5244 95.0767 50.5474 103.778C52.7096 105.342 53.2782 106.83 51.5574 109.187C50.5998 110.496 50.076 112.24 49.7169 113.863C47.0385 125.976 44.4274 138.104 41.8612 150.239C41.6068 151.436 41.8238 152.738 41.8238 154.586C45.2953 152.506 48.3403 151.107 50.8766 149.079C60.079 141.717 69.1393 134.176 78.207 126.642C82.5763 123.006 83.3993 122.953 87.4244 126.776C87.7536 127.091 88.1202 127.382 88.5093 127.614C94.3225 131.026 100.053 134.58 105.971 137.797C113.977 142.151 122.124 146.244 130.204 150.448C130.511 150.119 130.818 149.79 131.125 149.453C130.504 147.673 129.928 145.87 129.254 144.111C128.356 141.77 127.167 139.525 126.456 137.131C123.695 127.846 121.107 118.517 118.376 109.225C117.127 104.982 117.957 101.212 121.107 98.2415C128.267 91.4855 135.614 84.9391 142.826 78.2505C145.886 75.415 148.804 72.4223 151.789 69.497L151.318 68.5618C150.023 68.4047 148.729 68.1503 147.427 68.1204C143.888 68.0306 140.35 68.068 136.811 67.9932C133.047 67.9109 129.284 67.7164 125.521 67.6415C118.787 67.4994 112.009 67.8286 105.343 67.1029C102.657 66.8111 98.9312 64.8883 97.8613 62.6588C91.5692 49.4985 85.9505 36.0241 80.04 22.6843C78.9776 20.2827 77.6235 18.0158 76.404 15.689C75.9999 15.7563 75.5884 15.8162 75.1844 15.8835C73.3589 23.0285 71.5184 30.166 69.7228 37.3184C67.3886 46.5957 65.1815 55.9103 62.7125 65.1576C62.1664 67.2001 61.6651 69.7214 58.5453 69.8786C52.964 70.1554 47.3901 70.6492 41.8013 70.9559C32.2847 71.4721 23.0748 73.38 13.8873 76.5297L13.8948 76.5148Z" fill="#635795"/>
<path d="M58.4854 130.787C58.3807 129.178 58.0365 127.876 58.261 126.679C59.7498 118.719 61.2088 110.743 63.0118 102.85C63.5804 100.381 62.2861 99.4909 60.8272 98.4285C56.5851 95.3311 52.3056 92.2861 48.0485 89.2111C47.1208 88.5378 46.0659 87.9542 45.3626 87.0863C44.188 85.6349 43.2603 83.9814 42.2203 82.4178C43.7241 81.8118 45.1756 80.914 46.7393 80.6446C52.9116 79.5673 59.1289 78.7218 65.3162 77.7118C69.1767 77.0834 70.0371 73.6642 71.0097 70.7614C73.5385 63.1974 75.7306 55.5213 78.1098 47.905C78.4165 46.9174 79.0599 46.0345 80.0475 44.1566C83.7809 52.0199 87.0878 58.9479 90.3572 65.8908C91.3747 68.053 91.9808 70.4995 93.3723 72.3699C94.3225 73.6493 96.2603 74.7566 97.8464 74.8987C106.144 75.617 114.471 76.006 122.79 76.4998C123.591 76.5447 124.459 76.3128 125.177 76.5596C126.09 76.8664 127.159 77.3602 127.616 78.1084C127.855 78.5049 127.137 79.8067 126.531 80.3603C120.733 85.7097 114.927 91.0591 108.994 96.2513C106.817 98.1592 105.291 99.5807 106.577 103.052C109.181 110.062 111.104 117.335 113.229 124.517C113.483 125.377 113.229 126.387 113.206 127.33C112.256 127.3 111.164 127.569 110.378 127.203C101.946 123.223 93.5369 119.183 85.1725 115.068C83.302 114.147 82.09 114.282 80.3169 115.651C73.8976 120.589 67.224 125.205 60.6327 129.919C60.1912 130.233 59.6152 130.353 58.478 130.809L58.4854 130.787ZM63.0418 124.278C65.2638 122.976 66.7377 122.325 67.9497 121.352C72.506 117.716 76.995 113.998 81.469 110.249C83.2796 108.731 84.4991 108.192 87.0279 109.868C93.8362 114.379 100.659 119.063 108.807 121.524C106.839 114.933 105.178 108.559 102.994 102.371C101.767 98.8924 102.492 96.5282 105.126 94.2163C109.159 90.6625 113.064 86.9591 116.969 83.2632C117.867 82.4103 118.556 81.3329 119.962 79.5747C112.054 79.5747 105.216 79.5747 98.385 79.5747C95.1081 79.5747 92.3773 78.9014 91.1278 75.2354C89.9158 71.6891 88.3297 68.2625 86.7885 64.8359C85.0303 60.938 83.13 57.0999 81.0201 52.6708C80.5039 53.9277 80.1822 54.5112 80.0251 55.1322C78.1996 62.2996 76.3441 69.4596 74.6084 76.6494C73.95 79.3952 73.0073 80.9215 69.6032 80.7868C65.5331 80.6297 61.3958 81.3329 57.3333 81.9689C54.6399 82.3953 52.0288 83.3605 48.9239 84.2059C56.009 89.458 62.5704 94.3286 68.638 98.8175C66.7676 107.354 65.0244 115.3 63.0567 124.278H63.0418Z" fill="black"/>
</svg>
