<svg width="241" height="282" viewBox="0 0 241 282" fill="none" xmlns="http://www.w3.org/2000/svg">
<path d="M62.2518 196.6C59.6171 187.62 57.1008 179.051 54.5816 170.474C54.359 169.711 53.9097 168.949 53.9312 168.195C53.9741 166.687 54.2668 165.191 54.4608 163.688C55.7443 164.106 57.2894 164.199 58.2731 164.988C64.201 169.756 69.9996 174.691 75.8512 179.551C77.6047 181.004 79.3108 182.549 81.2175 183.775C81.7895 184.142 83.106 183.812 83.8422 183.388C92.7642 178.247 101.632 172.998 110.565 167.878C111.526 167.329 112.865 167.426 114.029 167.222C113.897 168.334 114.014 169.56 113.589 170.544C110.063 178.628 106.484 186.7 102.798 194.709C101.482 197.574 102.485 199.692 104.449 201.647C109.281 206.457 114.14 211.245 118.986 216.041C121.515 218.547 124.064 221.043 126.545 223.598C127.13 224.196 127.488 225.021 128.225 226.164C126.914 226.497 126.009 226.965 125.131 226.923C115.05 226.42 104.974 225.906 94.9018 225.241C92.6684 225.093 91.4532 225.781 90.5454 227.807C86.9022 235.947 83.1635 244.046 79.3784 252.121C78.8806 253.177 77.9081 254.019 77.1555 254.958C76.4048 253.801 75.2551 252.738 74.9702 251.484C72.9147 242.401 71.0108 233.28 69.1156 224.155C68.7093 222.198 67.8397 221.643 65.7196 221.502C61.4011 221.217 57.1426 220.089 52.8255 219.644C46.3572 218.977 39.8505 218.684 33.382 218.032C31.6314 217.855 29.9483 216.962 28.2361 216.397C29.5807 215.214 30.7741 213.743 32.3046 212.896C42.2644 207.385 52.2928 202.01 62.2604 196.611L62.2518 196.6ZM33.4508 214.65C33.4517 214.876 33.4467 215.1 33.4505 215.32C34.2918 215.475 35.1268 215.685 35.9716 215.776C46.5043 216.881 57.028 218.004 67.5673 219.026C69.4748 219.211 70.7806 219.728 71.1832 221.777C72.2715 227.319 73.3538 232.872 74.5644 238.388C75.3175 241.82 76.3036 245.196 77.3925 249.398C78.2328 247.76 78.6909 246.924 79.1028 246.064C82.4745 239.008 85.7826 231.92 89.27 224.923C89.7911 223.879 91.1984 222.517 92.1337 222.56C99.6309 222.902 107.116 223.581 114.609 224.074C117.188 224.246 119.778 224.184 122.361 224.234C121.777 222.878 121.114 222.29 120.501 221.663C113.558 214.516 106.597 207.375 99.7263 200.156C99.2342 199.634 99.0426 198.341 99.3193 197.645C101.167 192.947 103.189 188.309 105.135 183.647C106.778 179.718 108.389 175.78 110.062 171.736C100.893 176.932 92.0558 181.978 83.1533 186.896C82.4464 187.291 80.9304 187.198 80.348 186.695C74.1465 181.335 68.1035 175.794 61.905 170.428C60.3424 169.073 58.3951 168.154 56.2139 166.765C56.3177 167.802 56.2908 168.196 56.3981 168.543C59.166 177.248 61.9981 185.928 64.6583 194.658C64.9912 195.747 64.9146 197.762 64.2567 198.204C60.8241 200.493 57.1963 202.522 53.5317 204.438C46.8742 207.914 40.1425 211.25 33.448 214.641L33.4508 214.65Z" fill="black"/>
<path d="M71.0318 200.594C69.3708 194.759 67.8392 189.398 66.3104 184.046C66.6496 183.812 66.9888 183.578 67.3253 183.336C68.8127 184.325 70.3972 185.196 71.7584 186.331C74.1116 188.296 76.3091 190.451 78.6065 192.482C80.1055 193.805 81.5871 194.478 83.622 193.132C87.0047 190.897 90.5651 188.928 94.0769 186.883C95.1082 186.283 96.2081 185.806 97.2795 185.27L97.9017 185.866C96.1803 189.791 94.5745 193.776 92.6881 197.623C91.4561 200.138 91.2474 201.984 93.6747 204.103C97.2408 207.222 100.381 210.815 103.692 214.218C104.08 214.615 104.375 215.108 105.139 216.112C101.368 215.97 98.1488 215.935 94.9428 215.704C86.2393 215.092 86.2193 215.045 82.4693 222.796C81.2725 225.271 80.2378 227.829 78.8638 230.934C78.2718 229.895 77.7656 229.329 77.6204 228.686C76.6568 224.44 75.7224 220.18 74.8811 215.909C74.5619 214.28 74.1312 213.397 72.107 213.254C66.9 212.892 61.7139 212.147 56.5237 211.524C55.6094 211.412 54.7109 211.155 53.8031 210.959C53.7245 210.656 53.6547 210.351 53.5761 210.048C59.4258 206.879 65.2668 203.713 71.026 200.591L71.0318 200.594Z" fill="black"/>
<path d="M103.956 124.018C104.511 122.736 104.76 121.596 105.407 120.762C109.706 115.217 113.988 109.648 118.504 104.279C119.92 102.601 119.271 101.402 118.564 100.004C116.509 95.9335 114.404 91.8886 112.329 87.8296C111.878 86.9425 111.293 86.0742 111.092 85.1263C110.758 83.5415 110.695 81.8989 110.509 80.2811C111.912 80.4105 113.389 80.2942 114.704 80.7069C119.903 82.325 125.044 84.1396 130.228 85.8155C133.461 86.8625 135.478 84.5682 137.378 82.7164C142.325 77.889 147.056 72.8416 151.908 67.9145C152.535 67.2749 153.382 66.8496 154.888 65.7939C154.665 73.3361 154.482 79.9882 154.264 86.637C154.195 88.7074 153.696 90.8336 154.033 92.8274C154.261 94.1905 155.322 95.8127 156.492 96.5515C162.623 100.397 168.907 104 175.145 107.681C175.746 108.033 176.509 108.198 176.966 108.674C177.551 109.272 178.183 110.077 178.24 110.835C178.268 111.235 177.198 111.954 176.51 112.14C169.912 113.964 163.307 115.784 156.666 117.433C154.228 118.04 152.486 118.53 152.108 121.717C151.349 128.153 149.959 134.522 148.762 140.901C148.618 141.665 148.022 142.343 147.632 143.06C146.909 142.66 145.958 142.435 145.496 141.841C140.55 135.428 135.646 128.977 130.806 122.487C129.724 121.036 128.734 120.659 126.821 121.011C119.905 122.271 112.92 123.182 105.959 124.2C105.494 124.268 105.001 124.131 103.941 124.032L103.956 124.018ZM110.053 120.808C112.286 120.686 113.683 120.769 115.005 120.5C119.965 119.504 124.907 118.419 129.848 117.304C131.849 116.852 133.005 116.92 134.297 119.215C137.777 125.394 141.201 131.711 146.527 136.84C147.612 130.979 148.849 125.406 149.607 119.77C150.034 116.602 151.53 115.067 154.48 114.33C159.004 113.19 163.488 111.885 167.969 110.585C169.001 110.284 169.959 109.726 171.742 108.929C165.628 105.792 160.34 103.079 155.059 100.37C152.525 99.0697 150.68 97.4674 151.164 94.1458C151.629 90.9314 151.758 87.6609 151.922 84.4082C152.104 80.7061 152.153 76.9937 152.273 72.7426C151.377 73.5067 150.897 73.8289 150.53 74.2453C146.284 79.046 142.018 83.8291 137.832 88.6827C136.237 90.538 134.905 91.3406 132.326 89.8864C129.241 88.1507 125.764 87.0516 122.372 85.9302C120.121 85.1905 117.72 84.8987 114.985 84.3187C118.386 91.1778 121.533 97.535 124.449 103.402C119.627 109.241 115.137 114.674 110.064 120.814L110.053 120.808Z" fill="black"/>
<path d="M69.2635 142.783C69.9993 140.494 70.1401 138.453 71.1727 137.082C78.0828 127.929 85.1748 118.906 92.2262 109.862C94.1053 107.453 96.0132 105.059 98.0335 102.773C99.4635 101.154 99.8391 99.4962 98.819 97.6105C96.933 94.1222 94.8253 90.7387 93.1058 87.1683C89.1876 79.0384 85.4446 70.8236 81.6519 62.6343C81.4069 62.1007 81.3108 61.4904 81.2174 60.9034C80.4604 55.9981 81.6828 54.8404 86.3315 56.191C95.377 58.8139 104.425 61.4455 113.429 64.2071C115.593 64.8733 117.587 66.0858 119.671 67.0092C122.447 68.2365 124.745 68.3154 127.582 66.2309C138.808 57.981 148.257 47.9817 157.327 37.54C159.647 34.8692 162.284 32.4487 164.947 30.1069C165.612 29.5228 166.925 29.6715 167.94 29.486C168.069 30.3752 168.27 31.2651 168.299 32.1618C168.367 34.3236 168.353 36.4874 168.374 38.6545C168.444 44.8832 168.695 51.1168 168.536 57.3371C168.427 61.6521 167.696 65.9541 167.383 70.2667C167.1 74.2084 166.531 78.2222 167.007 82.0944C167.259 84.125 169.082 86.4812 170.87 87.7261C182.945 96.1218 194.95 104.685 208.737 110.229C210.275 110.85 211.757 111.792 213.017 112.869C215.92 115.357 215.493 117.301 211.764 118.572C206.214 120.459 200.686 122.475 195.02 123.961C187.347 125.969 179.548 127.512 171.808 129.281C170.46 129.588 169.13 130.013 167.81 130.421C165.086 131.26 163.79 132.773 163.552 135.959C163.27 139.712 161.578 143.338 160.916 147.093C159.527 154.941 158.391 162.838 157.203 170.723C156.937 172.48 157.086 174.312 156.675 176.025C156.382 177.237 155.401 179.291 154.852 179.25C153.348 179.148 151.412 178.519 150.516 177.404C146.876 172.862 143.613 168.027 140.111 163.374C135.968 157.861 131.717 152.43 127.539 146.943C125.383 144.11 123.2 141.286 121.155 138.379C119.483 135.998 117.713 135.345 114.604 135.979C105.188 137.894 95.661 139.315 86.1539 140.768C80.974 141.564 75.7391 142.025 69.2518 142.791L69.2635 142.783ZM90.9456 64.4885C90.9915 65.1823 90.9488 65.4081 91.0287 65.5656C96.8426 77.0649 102.648 88.567 108.503 100.044C109.556 102.107 109.407 103.48 107.144 104.614C105.886 105.243 104.792 106.379 103.872 107.488C97.0105 115.763 90.1953 124.075 83.4118 132.411C82.7417 133.233 82.3947 134.323 81.6638 135.747C85.1705 135.521 88.0781 135.651 90.841 135.094C100.868 133.07 110.855 130.851 120.846 128.64C125.662 127.571 126.319 127.857 127.92 132.4C128.05 132.773 128.218 133.144 128.427 133.477C131.572 138.413 134.598 143.425 137.901 148.253C142.369 154.785 147.05 161.172 151.634 167.618C152.002 167.486 152.369 167.354 152.739 167.216C152.964 165.597 153.231 163.979 153.406 162.356C153.638 160.195 153.606 157.993 154.003 155.866C155.541 147.613 157.229 139.395 158.792 131.149C159.504 127.383 161.637 124.806 165.247 123.766C173.455 121.399 181.725 119.267 189.946 116.972C193.434 116 196.873 114.851 200.338 113.78L200.344 112.872C199.405 112.238 198.505 111.528 197.51 110.989C194.81 109.516 192.059 108.141 189.352 106.679C186.475 105.123 183.642 103.48 180.762 101.93C175.612 99.1491 170.241 96.7139 165.374 93.5101C163.413 92.2197 161.292 89.2596 161.347 87.1166C161.687 74.4762 162.671 61.8608 163.377 49.2334C163.505 46.9608 163.355 44.6761 163.332 42.3988C162.993 42.2904 162.651 42.1733 162.312 42.065C158.075 46.8484 153.829 51.6201 149.612 56.4211C144.139 62.6464 138.748 68.9509 133.182 75.0996C131.952 76.4573 130.567 78.202 128.093 77.0855C123.668 75.0848 119.163 73.2544 114.721 71.2738C107.159 67.8966 99.2832 65.7137 90.9339 64.4971L90.9456 64.4885Z" fill="black"/>
</svg>
