<svg width="120" height="119" viewBox="0 0 120 119" fill="none" xmlns="http://www.w3.org/2000/svg">
<g clip-path="url(#clip0_47_203)">
<path d="M12.73 68.82C15.1 60.79 16.94 53.91 19.21 47.18C20.32 43.9 19.78 41.98 16.87 39.94C11.03 35.84 5.51 31.29 0 25.73C6.9 25.73 13.81 25.54 20.7 25.81C24.63 25.96 26.63 24.88 27.78 20.79C29.67 14.09 32.4 7.62 35.16 0C38.04 8.13 40.66 15.26 43.06 22.47C43.85 24.86 44.98 25.85 47.6 25.78C55.03 25.6 62.46 25.72 69.89 25.72C70.03 26.13 70.17 26.53 70.31 26.94C64.96 31.07 59.76 35.42 54.21 39.25C50.66 41.7 49.68 44.06 51.25 48.26C53.58 54.49 55.17 61.01 57.48 68.76C49.35 63.2 42.31 58.38 35.13 53.48C28.05 58.33 21.01 63.15 12.73 68.82Z" fill="black"/>
<path d="M110.24 52.66C106.53 61.69 103.3 69.55 99.94 77.72C106.21 83.67 112.5 89.63 119.48 96.26C111.24 95.68 103.92 95.33 96.65 94.59C93.58 94.28 91.98 95.08 90.72 98.01C87.89 104.58 84.64 110.96 80.96 118.66C79.18 111.49 77.68 105.46 76.18 99.43C75.85 98.1 75.89 96.51 75.15 95.48C74.18 94.11 72.73 92.42 71.27 92.18C63.83 90.94 56.31 90.11 47.73 89C54.93 84.51 61.15 80.47 67.55 76.71C70.04 75.25 70.74 73.91 70.03 70.9C68.36 63.8 67.31 56.56 65.81 48.28C72.24 53.67 78.06 58.28 83.54 63.25C85.8 65.3 87.37 65.23 89.85 63.79C96.15 60.12 102.65 56.77 110.23 52.66H110.24Z" fill="black"/>
</g>
<defs>
<clipPath id="clip0_47_203">
<rect width="119.48" height="118.67" fill="white"/>
</clipPath>
</defs>
</svg>
