<svg width="124" height="120" viewBox="0 0 124 120" fill="none" xmlns="http://www.w3.org/2000/svg">
<path d="M99.7 118.76C87.64 110.44 76.29 102.72 65.08 94.79C62.45 92.93 60.61 92.82 57.89 94.76C46.57 102.81 35.06 110.59 22.75 119.06C27.35 103.51 31.66 88.93 36.07 74.02C24.07 64.77 12.03 55.51 0 46.24C0.08 45.83 0.16 45.43 0.24 45.02C3.84 45.02 7.45 45.09 11.05 45.01C21.45 44.76 31.85 44.32 42.25 44.22C45.03 44.19 46.18 43.19 47.06 40.66C51.63 27.43 56.39 14.25 61.45 0C64.81 9.4 67.84 17.83 70.82 26.27C72.5 31.02 74.25 35.75 75.68 40.57C76.52 43.4 78.02 44.19 80.92 44.22C93.16 44.37 105.39 44.81 117.62 45.16C119.25 45.21 120.87 45.39 123.67 45.59C116.55 51.1 110.33 55.93 104.09 60.74C99.37 64.38 94.71 68.12 89.85 71.57C87.48 73.25 86.94 74.85 87.81 77.68C91.59 89.93 95.11 102.25 98.71 114.55C99.03 115.65 99.22 116.78 99.67 118.75L99.7 118.76Z" fill="#FF0000"/>
</svg>
