<svg width="85" height="81" viewBox="0 0 85 81" fill="none" xmlns="http://www.w3.org/2000/svg">
<path d="M42.06 0C45.22 8.81 48.46 17.45 51.36 26.2C52.19 28.7 53.35 29.63 55.88 29.61C65.05 29.53 74.23 29.58 83.4 29.58C83.77 30.16 84.14 30.74 84.51 31.33C83.49 31.84 82.36 32.2 81.47 32.87C74.88 37.84 68.4 42.98 61.73 47.84C59.61 49.38 59.28 50.82 60.02 53.21C62.79 62.07 65.37 70.99 68.31 80.84C60.05 75.19 52.42 70.13 44.99 64.78C42.61 63.07 40.99 63.03 38.6 64.74C31.3 69.97 23.8 74.94 15.27 80.77C17.33 73.69 19 67.77 20.76 61.89C23.14 53.9633 21.12 47.5133 14.7 42.54C9.76 38.72 4.8 34.93 0 29.87C6.29 29.87 12.59 29.96 18.88 29.85C31.02 29.63 31 29.58 35.05 18.09C37.08 12.34 39.16 6.61 41.24 0.88C41.33 0.62 41.64 0.44 42.06 0Z" fill="black"/>
<path d="M44.72 50.3398C42.01 49.7998 39.48 48.3598 37.63 45.8298C36.46 44.2298 35.25 42.6198 35.87 40.4598C36.02 39.9298 36.39 39.3698 36.83 39.0398C37.67 38.4098 38.55 38.6798 39 39.6398C39.54 40.7898 40.49 41.9398 39.13 43.1998C38.99 43.3298 39.05 43.9098 39.22 44.0798C40.34 45.1598 41.48 46.2198 42.67 47.2198C43.27 47.7098 43.89 47.5198 44.28 46.8498C44.84 45.8798 45.56 45.8598 46.4 46.4298C47.14 46.9198 48.46 46.8898 48.15 48.3498C47.9 49.5098 46.59 50.3798 44.72 50.3498V50.3398Z" fill="white"/>
<path d="M28.66 57.6999C29.33 55.7499 30 54.1199 30.42 52.4299C30.64 51.5499 30.67 50.4399 30.32 49.6299C26.75 41.2699 32.52 32.1599 41.62 31.9099C48.18 31.7299 53.75 36.5699 54.46 43.4099C55.09 49.4799 51.13 55.2299 44.67 56.7299C41.91 57.3699 39.26 57.0099 36.66 55.8999C36.1 55.6599 35.34 55.6299 34.75 55.7899C32.79 56.3299 30.87 56.9999 28.67 57.6999H28.66ZM31.84 54.3299C31.96 54.3699 32.08 54.4099 32.19 54.4499C32.51 54.3599 32.85 54.2999 33.15 54.1699C34.82 53.4999 36.3 53.4699 38.1 54.2599C42.35 56.1399 47.41 54.6099 50.31 50.9599C53.05 47.4999 53.3 42.6399 50.91 38.9899C47.8 34.2299 42.07 32.5499 37.12 34.9699C32.27 37.3299 29.87 42.7399 31.85 47.7899C32.75 50.0799 33.36 52.0899 31.84 54.3299Z" fill="white"/>
</svg>
