<svg width="85" height="82" viewBox="0 0 85 82" fill="none" xmlns="http://www.w3.org/2000/svg">
<path d="M42.315 0.579956C45.475 9.38996 48.715 18.03 51.615 26.78C52.445 29.28 53.605 30.21 56.135 30.19C65.305 30.11 74.485 30.16 83.655 30.16C84.025 30.74 84.395 31.32 84.765 31.91C83.745 32.42 82.615 32.78 81.725 33.45C75.135 38.42 68.655 43.56 61.985 48.42C59.865 49.96 59.535 51.4 60.275 53.79C63.045 62.65 65.625 71.57 68.565 81.42C60.305 75.77 52.675 70.71 45.245 65.36C42.865 63.65 41.245 63.61 38.855 65.32C31.555 70.55 24.055 75.52 15.525 81.35C17.585 74.27 19.255 68.35 21.015 62.47C23.395 54.5433 21.375 48.0933 14.955 43.12C10.015 39.3 5.05501 35.51 0.255005 30.45C6.545 30.45 12.845 30.54 19.135 30.43C31.275 30.21 31.255 30.16 35.305 18.67C37.335 12.92 39.415 7.18996 41.495 1.45996C41.585 1.19996 41.895 1.01996 42.315 0.579956Z" fill="black"/>
<path d="M47.435 40.2099C47.035 39.6599 46.385 39.1499 46.295 38.5499C46.165 37.7299 46.765 37.1199 47.695 37.1099C48.615 37.0999 49.235 37.6799 49.125 38.5099C49.045 39.1099 48.415 39.6399 48.035 40.1999C47.835 40.1999 47.645 40.1999 47.445 40.1999L47.435 40.2099Z" fill="white"/>
<path d="M41.1551 38.8199C44.7151 38.8199 47.4551 41.5899 47.4351 45.1699C47.4251 48.6399 44.6351 51.4399 41.1851 51.4499C37.6351 51.4499 34.8151 48.6599 34.8351 45.1399C34.8451 41.5599 37.5851 38.8199 41.1551 38.8299V38.8199ZM41.1851 49.2199C43.4851 49.1999 45.3051 47.3099 45.2451 44.9999C45.1851 42.8099 43.2651 40.9799 41.0451 40.9999C38.8551 41.0299 37.0051 42.9099 36.9851 45.1299C36.9751 47.3999 38.8551 49.2399 41.1751 49.2199H41.1851Z" fill="white"/>
<path d="M28.9351 45.0999C28.9351 43.2199 28.8651 41.3399 28.9451 39.4599C29.1051 35.7899 31.6051 33.1399 35.2551 32.9999C39.1351 32.8599 43.0251 32.8499 46.9051 32.9899C50.6351 33.1199 53.1851 35.7599 53.2951 39.5199C53.4051 43.2299 53.3951 46.9499 53.2951 50.6699C53.2051 54.2099 51.0951 56.8999 47.6051 57.1499C43.1951 57.4699 38.7251 57.4199 34.3151 57.0699C31.1551 56.8199 29.1051 54.1699 28.9451 50.9899C28.8451 49.0299 28.9251 47.0599 28.9251 45.0999H28.9351ZM40.5551 55.3099C40.5551 55.3099 40.5551 55.2299 40.5551 55.1999C42.1751 55.1999 43.7951 55.2099 45.4251 55.1999C45.9751 55.1999 46.5351 55.1199 47.0851 55.0599C49.2151 54.8599 50.9151 53.4199 50.9851 51.3199C51.1151 47.1899 51.1051 43.0499 50.9851 38.9199C50.9251 36.9999 49.4451 35.3999 47.5751 35.3299C43.3251 35.1799 39.0551 35.1599 34.8051 35.3299C32.8151 35.3999 31.3551 36.9499 31.2851 38.9499C31.1451 43.0399 31.1251 47.1299 31.2851 51.2199C31.3651 53.4799 33.0451 54.8999 35.3351 55.0699C37.0751 55.1999 38.8251 55.2399 40.5751 55.3299L40.5551 55.3099Z" fill="white"/>
</svg>
