<svg width="86" height="82" viewBox="0 0 86 82" fill="none" xmlns="http://www.w3.org/2000/svg">
<path d="M42.805 0.579956C45.965 9.38996 49.205 18.03 52.105 26.78C52.935 29.28 54.095 30.21 56.625 30.19C65.795 30.11 74.975 30.16 84.145 30.16C84.515 30.74 84.885 31.32 85.255 31.91C84.235 32.42 83.105 32.78 82.215 33.45C75.625 38.42 69.145 43.56 62.475 48.42C60.355 49.96 60.025 51.4 60.765 53.79C63.535 62.65 66.115 71.57 69.055 81.42C60.795 75.77 53.165 70.71 45.735 65.36C43.355 63.65 41.735 63.61 39.345 65.32C32.045 70.55 24.545 75.52 16.015 81.35C18.075 74.27 19.745 68.35 21.505 62.47C23.885 54.5433 21.865 48.0933 15.445 43.12C10.505 39.3 5.545 35.51 0.744995 30.45C7.035 30.45 13.335 30.54 19.625 30.43C31.765 30.21 31.745 30.16 35.795 18.67C37.825 12.92 39.905 7.18996 41.985 1.45996C42.075 1.19996 42.385 1.01996 42.805 0.579956Z" fill="black"/>
<path d="M41.885 34.9C45.205 34.9 48.535 34.97 51.855 34.88C53.925 34.82 55.455 36.49 55.425 38.48C55.385 41.1 55.415 43.71 55.415 46.33C55.415 47.92 55.365 49.52 55.425 51.11C55.495 53.02 54.115 54.84 51.775 54.81C45.105 54.74 38.445 54.79 31.775 54.79C29.715 54.79 28.255 53.34 28.255 51.27C28.255 47 28.255 42.73 28.255 38.47C28.255 36.34 29.675 34.92 31.795 34.91C35.155 34.91 38.525 34.91 41.885 34.91V34.9ZM42.575 47C46.075 43.75 49.515 40.54 53.125 37.18C52.615 37.08 52.275 36.96 51.935 36.96C47.705 36.95 43.485 36.96 39.255 36.96C36.735 36.96 34.225 36.96 31.705 36.96C31.195 36.96 30.745 37.07 30.465 37.61C34.505 40.74 38.515 43.86 42.575 47.01V47ZM42.675 49.39C41.465 48.46 40.305 47.56 39.145 46.66C36.755 48.67 34.425 50.63 31.995 52.67H52.135C49.945 50.56 47.865 48.56 45.755 46.53C44.805 47.41 43.765 48.38 42.675 49.39ZM30.245 51.75C32.785 49.61 35.205 47.57 37.665 45.51C35.175 43.58 32.745 41.7 30.245 39.76V51.75ZM47.245 45.14C49.355 47.2 51.435 49.23 53.435 51.18V39.39C51.325 41.35 49.295 43.24 47.245 45.14Z" fill="white"/>
</svg>
