<?xml version="1.0" encoding="UTF-8"?>
<svg xmlns="http://www.w3.org/2000/svg" version="1.1" viewBox="0 0 85 85">
  <!-- Generator: Adobe Illustrator 28.6.0, SVG Export Plug-In . SVG Version: 1.2.0 Build 709)  -->
  <g>
    <g id="Capa_1">
      <path d="M23.46,22.79c3.64.01,7.24.3,10.71,1.48,7.51,2.56,11.16,8.56,10.11,16.43-.84,6.28-3.39,11.91-6.46,17.34-2.65,4.69-5.73,9.1-9.03,13.35-.99,1.28-2.25,2.25-3.72,2.94-4.09,1.91-8-.09-8.89-4.51-.59-2.93.03-5.7,1.05-8.42.79-2.1,1.38-4.24,1.57-6.48.44-5.35-1.67-9.53-5.9-12.71-2.58-1.94-5.16-3.88-7.32-6.32-.87-.99-1.65-2.05-2.18-3.27-1.05-2.42-.47-4.58,1.67-6.1,2.16-1.54,4.65-2.22,7.22-2.65,3.7-.62,7.41-1.1,11.17-1.08ZM26.04,31.81c-2.93.22-5.53.33-7.96,1.34-2.18.91-2.47,2.11-1.06,3.99,1.16,1.55,2.71,2.69,4.24,3.83,2.7,2.01,3.86,4.68,3.48,8.02-.13,1.11-.42,2.19-.82,3.23-.29.74-.53,1.5-.6,2.3-.19,2.05.35,3.44,1.55,3.94,1.26.53,2.88-.11,4.12-1.7,1.98-2.55,3.79-5.22,5.31-8.08,1.15-2.15,2.1-4.38,2.61-6.77,1-4.75-.8-8.1-5.06-9.41-2-.61-4.07-.73-5.8-.69Z"/>
      <path d="M49.65,42.77c2.22-3.27,4.22-6.58,6.44-9.74,2.25-3.2,4.71-6.23,7.45-9.03,1.84-1.88,4.03-3.28,6.66-3.76,5.62-1.01,10.91,2.91,11.77,8.59.39,2.59-.02,5-1.36,7.24-1.41,2.35-3.79,3.35-6.36,2.35-4.03-1.57-7.72-.81-11.34,1.16-3.78,2.06-6.91,4.97-10.04,7.87-1.17,1.08-2.37,2.12-3.58,3.16-.33.28-.7.53-1.09.73-1.79.97-3.16.22-3.33-1.83-.2-2.37.34-4.68.6-7.01.66-5.88.57-11.7-1.8-17.26-.61-1.43-1.33-2.8-2.43-3.94-.3-.31-.52-.71-.69-1.11-.55-1.3-.2-2.8.77-3.47.96-.67,2.46-.43,3.49.59.71.71,1.22,1.57,1.7,2.45,2.39,4.35,3.09,9.08,3.13,13.95.02,3.01,0,6.03,0,9.04Z"/>
      <path d="M64.12,59.5c1.85.76,3.4,1.47,4.65,2.69,3.81,3.69,2.84,9.24-2.11,11.14-4.46,1.72-8.73.98-12.45-2.07-3.86-3.16-6.53-7.27-8.76-11.68-.52-1.03-.84-2.16-.8-3.34.04-1.41.67-2.12,2.07-2.29,2.29-.28,4.15-1.34,5.63-3.08,2.67-3.15,5.51-6.09,9.28-7.95,2.46-1.21,4.98-2.23,7.77-1.96,5.36.52,8.26,4.94,6.64,10.09-1.24,3.97-4.22,6.16-7.98,7.44-1.19.4-2.44.63-3.95,1.01ZM59.47,59.63c1.3-.97,1.66-2.27,1.46-3.73-.17-1.26-.8-2.24-2.06-2.7-1.18-.42-2.21-.04-3.07.76-.64.59-1.18,1.3-1.75,1.96-.46.52-.99.92-1.67,1.11-1.48.42-1.79.95-1.16,2.4.88,1.99,2.2,3.69,3.76,5.2.6.59,1.29,1.06,2.08,1.37,1.87.75,3.44.03,4.06-1.88.6-1.87.03-3.36-1.63-4.48Z"/>
      <path d="M37.98,9.95c1.07,0,1.87.81,1.86,1.9,0,1.05-.85,1.9-1.89,1.89-1.03,0-1.89-.88-1.88-1.91.01-1.06.85-1.88,1.9-1.88Z"/>
      <path d="M45.04,11.79c.02,1.01-.86,1.92-1.87,1.95-1.05.02-1.89-.79-1.91-1.86-.02-1.08.76-1.9,1.83-1.93,1.04-.02,1.93.82,1.95,1.84Z"/>
    </g>
  </g>
</svg>